<?xml version="1.0" encoding="UTF-8" standalone="no"?>
<!-- Created with Inkscape (http://www.inkscape.org/) -->

<svg
   xmlns:dc="http://purl.org/dc/elements/1.1/"
   xmlns:cc="http://creativecommons.org/ns#"
   xmlns:rdf="http://www.w3.org/1999/02/22-rdf-syntax-ns#"
   xmlns:svg="http://www.w3.org/2000/svg"
   xmlns="http://www.w3.org/2000/svg"
   xmlns:sodipodi="http://sodipodi.sourceforge.net/DTD/sodipodi-0.dtd"
   xmlns:inkscape="http://www.inkscape.org/namespaces/inkscape"
   id="svg3055"
   version="1.1"
   inkscape:version="0.48.2 r9819"
   width="1549"
   height="1091"
   sodipodi:docname="kirby_flat.svg">
  <metadata
     id="metadata3061">
    <rdf:RDF>
      <cc:Work
         rdf:about="">
        <dc:format>image/svg+xml</dc:format>
        <dc:type
           rdf:resource="http://purl.org/dc/dcmitype/StillImage" />
        <dc:title></dc:title>
      </cc:Work>
    </rdf:RDF>
  </metadata>
  <defs
     id="defs3059" />
  <sodipodi:namedview
     pagecolor="#ffffff"
     bordercolor="#666666"
     borderopacity="1"
     objecttolerance="10"
     gridtolerance="10"
     guidetolerance="10"
     inkscape:pageopacity="0"
     inkscape:pageshadow="2"
     inkscape:window-width="1920"
     inkscape:window-height="1080"
     id="namedview3057"
     showgrid="false"
     inkscape:zoom="0.54555418"
     inkscape:cx="691.6969"
     inkscape:cy="348.85771"
     inkscape:window-x="0"
     inkscape:window-y="0"
     inkscape:window-maximized="0"
     inkscape:current-layer="svg3055"
     inkscape:snap-global="false" />
  <rect
     style="fill:#e77f9a;fill-opacity:1;stroke:none"
     id="rect4054"
     width="1556.2157"
     height="1097.9661"
     x="-1.8329985"
     y="-1.467109" />
  <path
     style="fill:#000000;fill-opacity:1;stroke:none;stroke-opacity:1"
     d="m 775,966.53988 c -0.825,-0.19781 -4.875,-0.90242 -9,-1.5658 -36.44433,-5.86093 -74.14999,-32.09981 -103.92005,-72.31662 -13.77742,-18.61211 -23.90601,-36.99949 -33.01338,-59.93229 -9.05505,-22.80103 -12.0179,-37.49142 -10.09955,-50.07563 3.96256,-25.99411 27.75464,-41.51043 74.53298,-48.6077 62.73166,-9.51773 146.38919,-7.05192 200.07754,5.89728 23.7592,5.73053 38.32628,15.26319 41.94499,27.4487 1.9013,6.40239 1.90854,21.87932 0.0153,32.73119 -4.25382,24.38256 -21.42014,67.60298 -36.521,91.9506 -23.52964,37.93759 -54.23057,63.46281 -86.63243,72.02753 -5.65881,1.49578 -11.83631,2.18546 -21.88441,2.44323 -7.7,0.19754 -14.675,0.19732 -15.5,-4.9e-4 z"
     id="path3974" />
  <path
     style="fill:#000000;fill-opacity:1;stroke:none;stroke-opacity:1"
     d="M 806.33842,962.51636 C 821.582,959.28659 836.3835,952.30845 851,941.46075 c 8.1722,-6.06504 24.24506,-21.82112 30.5,-29.89888 1.65,-2.13084 3.95708,-5.04147 5.12683,-6.46806 6.83855,-8.34004 22.04902,-35.74789 28.82134,-51.93339 14.34695,-34.28846 21.07163,-62.79869 18.55912,-78.68405 -2.06405,-13.04996 -9.65487,-20.51113 -28.4617,-27.97561 -10.87656,-4.31694 -40.16616,-9.79209 -70.54559,-13.18719 -19.53206,-2.18284 -87.25987,-2.52295 -107.5,-0.53984 -55.9527,5.48219 -79.52749,12.81076 -95.23902,29.60644 -8.40934,8.98961 -10.66645,14.96199 -10.62718,28.11983 0.0314,10.51368 1.29539,16.69386 6.34031,31 5.65647,16.04034 14.9447,35.99551 22.32054,47.95429 19.82508,32.14328 43.89351,57.9252 68.95424,73.86328 21.6098,13.74336 43.85819,20.50798 67.75111,20.59971 7.29399,0.028 15.34807,-0.55545 19.33842,-1.40092 z"
     id="path3972" />
  <path
     style="fill:#000000;fill-opacity:1;stroke:none;stroke-opacity:1"
     d="m 767,955.6127 c -14.19568,-2.83494 -28.10363,-8.3766 -40.90147,-16.2973 -26.50032,-16.40128 -56.80467,-48.1295 -68.34414,-71.55531 -2.69592,-5.47288 -3.08857,-7.32897 -3.1225,-14.76009 -0.0316,-6.91573 0.39504,-9.39093 2.2889,-13.28004 8.19282,-16.82429 32.67579,-29.94437 71.07921,-38.09034 21.62532,-4.58707 27.97704,-5.13276 59,-5.06883 30.14715,0.0621 39.59458,0.79953 59,4.60513 39.4355,7.73368 60.55429,27.71323 58.76495,55.5949 -0.60343,9.40278 -5.17658,18.72815 -18.00756,36.72026 -23.56144,33.03878 -47.78371,51.42123 -79.25739,60.14899 -11.02651,3.05769 -30.37407,4.00483 -40.5,1.98263 z"
     id="path3970" />
  <path
     style="fill:#ea6b64;fill-opacity:1;stroke:none;stroke-opacity:1"
     d="m 802,952.07048 c 31.73541,-7.0424 59.16145,-27.2493 82.88861,-61.07048 14.35191,-20.45751 18.68308,-31.34375 16.94555,-42.59209 -3.91992,-25.37654 -26.5927,-40.57849 -69.83416,-46.82333 -17.51787,-2.5299 -52.23354,-3.87543 -67.2035,-2.60472 -31.80589,2.69982 -64.9699,11.20754 -82.73277,21.22383 -12.50232,7.04992 -21.92304,16.84639 -24.1487,25.11186 -1.77528,6.59289 -0.72294,14.60105 2.88057,21.92083 8.53114,17.3292 35.61102,47.41272 56.2044,62.43846 13.93169,10.1651 32.71552,19.18585 46.5,22.33114 10.9217,2.49207 27.43588,2.51974 38.5,0.0645 z"
     id="path3968" />
  <path
     style="fill:#000000;fill-opacity:1;stroke:none;stroke-opacity:1"
     d="M 646.09878,840.44284 C 644.94445,838.4864 644,836.69974 644,836.47248 c 0,-0.22727 -1.06521,-2.78905 -2.36713,-5.69284 -6.8286,-15.23046 -9.9541,-27.50151 -10.00571,-39.28356 -0.0522,-11.91837 1.798,-16.75988 9.18985,-24.04731 8.71329,-8.59021 20.33144,-14.27154 37.54534,-18.35983 35.13096,-8.34358 128.29039,-10.20599 174.45847,-3.4877 13.77375,2.00432 32.95117,5.83865 42.16285,8.43002 15.53306,4.36967 28.08193,13.47106 29.5794,21.45322 1.98814,10.59772 -11.03578,64.01552 -15.60778,64.01552 -0.68971,0 -1.85328,-1.7309 -2.5857,-3.84644 -1.99843,-5.77232 -9.94314,-16.31887 -15.21,-20.19117 -21.15386,-15.55272 -51.10133,-22.21115 -104.17204,-23.16128 -26.84011,-0.48053 -30.8243,-0.3316 -44,1.64473 -13.45638,2.01843 -22.91926,3.96223 -28.98755,5.95442 -1.375,0.45141 -4.3,1.37584 -6.5,2.05429 -24.34649,7.50816 -46.13006,22.31983 -54.94334,37.35855 -1.51068,2.57779 -3.10949,4.6869 -3.55291,4.6869 -0.44341,0 -1.75065,-1.60072 -2.90497,-3.55716 z"
     id="path3966" />
  <path
     style="fill:#000000;fill-opacity:0;stroke:none;stroke-opacity:1"
     d="m 651.24208,836.25 c 3.58565,-5.36164 17.52162,-19.25 19.31598,-19.25 0.31646,0 2.00786,-1.07631 3.75866,-2.39181 3.90395,-2.9333 17.87048,-9.9704 24.95563,-12.57401 31.63455,-11.62489 69.94377,-15.20692 117.22765,-10.96113 37.61551,3.37763 64.07855,11.4339 78,23.74592 4.93348,4.36313 11.42642,12.74654 12.72582,16.43103 0.53341,1.5125 1.32094,2.75 1.75008,2.75 1.10884,0 5.29764,-11.57451 5.421,-14.97932 0.0567,-1.56517 0.31157,-2.63915 0.56637,-2.38662 1.33936,1.32743 7.0289,-28.52677 7.03354,-36.9064 0.003,-5.33712 -0.29551,-6.0964 -3.95841,-10.07017 -8.59794,-9.32767 -23.17775,-14.56693 -55.97571,-20.11492 -24.45896,-4.1374 -46.13654,-5.68288 -79.56269,-5.67236 -43.88583,0.0138 -83.98304,2.95649 -104.23731,7.64981 -20.4637,4.74185 -39.85076,17.4863 -43.10048,28.33291 -2.98379,9.95901 -0.60088,26.76009 6.13151,43.23112 3.47256,8.49576 7.10757,16.88704 7.32339,16.90578 0.0644,0.006 1.24565,-1.67733 2.62497,-3.73983 z"
     id="path3964" />
  <path
     style="fill:#000000;fill-opacity:1;stroke:none;stroke-opacity:1"
     d="M 552.5,720.35072 C 526.08064,713.17251 507.24939,691.492 489.65764,648 470.64881,601.00454 460.80536,553.12659 454.29539,476 c -2.21221,-26.20905 -2.52855,-112.92452 -0.48884,-134 3.56475,-36.83316 7.03191,-58.75372 14.31429,-90.5 6.11008,-26.63586 11.76372,-44.36763 20.44364,-64.11838 16.11732,-36.67417 28.18897,-54.74573 43.2644,-64.76786 9.13369,-6.07206 16.25003,-8.71177 25.17112,-9.33686 16.10598,-1.12852 28.62705,4.21155 42.56707,18.15427 26.47917,26.48431 44.79779,71.60345 57.88372,142.56883 8.50546,46.1254 11.96661,87.70977 11.98539,144 0.0144,43.17676 -1.03468,64.18571 -4.97358,99.60109 -11.53391,103.70338 -46.98405,185.16191 -87.23268,200.44615 -5.67144,2.1537 -20.27482,3.51395 -24.72992,2.30348 z"
     id="path3936" />
  <path
     style="fill:#000000;fill-opacity:1;stroke:none;stroke-opacity:1"
     d="m 579.6723,713.51229 c 9.7032,-4.79558 23.23138,-17.90293 31.49194,-30.51229 13.38227,-20.42743 26.93414,-52.91368 36.29267,-87 17.90353,-65.20952 24.25786,-167.81448 15.97796,-258 -3.03702,-33.07953 -9.0199,-68.83427 -17.06776,-102 -3.46207,-14.26741 -13.129,-44.81229 -15.79264,-49.90045 -0.74847,-1.42975 -3.63337,-7.42186 -6.41089,-13.31579 -12.16226,-25.80852 -28.63217,-44.76879 -46.11819,-53.09158 -12.97687,-6.17658 -29.6176,-4.50008 -42.81616,4.31358 -16.57198,11.06635 -30.13781,31.88395 -46.91517,71.99424 -8.7963,21.02965 -10.81795,27.57416 -17.76216,57.5 -15.77357,67.97561 -19.94259,141.03841 -12.98132,227.5 5.43755,67.53645 15.56026,116.70751 33.43105,162.39126 14.16647,36.21429 29.27593,57.45313 49.02261,68.90939 6.97696,4.04776 14.36398,5.72524 23.66421,5.37378 7.14327,-0.26994 9.18346,-0.8012 15.98385,-4.16214 z"
     id="path3934" />
  <path
     style="fill:#000000;fill-opacity:1;stroke:none;stroke-opacity:1"
     d="M 546.88436,704.34069 C 522.58909,692.30121 498.92588,650.58753 485.14153,595.5 c -8.18691,-32.71801 -15.13504,-79.18459 -18.09309,-121 -1.39797,-19.7619 -2.27755,-67.44896 -1.19892,-65 0.8809,2 0.8809,2 1.3193,0 0.24383,-1.11239 1.22174,1.55044 2.20345,6 7.89963,35.80448 13.86183,53.9954 24.84371,75.79919 4.56025,9.05407 12.94375,22.48609 16.98425,27.21211 12.8407,15.0193 23.27347,22.23559 37.44411,25.89988 8.52088,2.20335 13.98005,1.99289 23.05404,-0.88878 27.70778,-8.79929 51.86304,-42.16246 67.71112,-93.5224 5.08491,-16.47899 11.06813,-47.08665 13.29271,-68 l 0.79779,-7.5 0.5774,6.5 0.5774,6.5 0.3134,-6.5 0.3134,-6.5 0.7603,5.5 c 1.13572,8.21575 1.10205,59.23412 -0.0526,79.63907 C 652.13406,527.77168 642.42113,582.72712 624.99569,635 617.84792,656.4419 606.37943,676.99546 594.25702,690.0891 582.60734,702.67215 572.74352,708 561.09734,708 c -5.84879,0 -7.8882,-0.52507 -14.21298,-3.65931 z"
     id="path3932" />
  <path
     style="fill:#392f76;fill-opacity:1;stroke:none;stroke-opacity:1"
     d="m 568,704.45422 c 13.74061,-2.72887 31.35848,-21.24207 43.77482,-45.99944 10.37066,-20.67842 20.36339,-52.17338 27.74767,-87.45478 4.78326,-22.85395 9.37194,-53.81205 11.41312,-77 2.72781,-30.98826 4.60912,-94.54186 2.87924,-97.26534 -0.4777,-0.75207 -0.79021,-0.0321 -0.79954,1.84209 -0.0237,4.76527 -5.81474,33.68382 -9.17452,45.81463 -6.05512,21.86263 -14.94968,44.00111 -23.93421,59.57203 -7.84178,13.59044 -24.85213,31.59694 -34.91637,36.96113 -12.50815,6.66677 -24.99445,8.84397 -37.49021,6.53705 -4.52482,-0.83536 -18.12548,-7.37103 -22.2624,-10.69799 -12.39479,-9.96804 -27.22656,-29.47882 -35.35365,-46.50674 C 482.43523,474.65026 473.54249,448.22634 469.60502,430 l -1.4042,-6.5 -0.0971,13 c -0.11108,14.87669 2.13718,50.85157 4.37466,70 7.83748,67.07342 19.71011,114.22217 37.77181,150 9.34576,18.51272 23.85258,36.62422 35.39008,44.18388 3.0786,2.01718 15.11383,5.36186 17.3597,4.8244 0.825,-0.19743 3.075,-0.67176 5,-1.05406 z"
     id="path3930" />
  <path
     style="fill:#000000;fill-opacity:1;stroke:none;stroke-opacity:1"
     d="m 549.74242,402.0573 c -26.42696,-7.12676 -48.52628,-39.66091 -58.1161,-85.5573 -3.36623,-16.11061 -4.62976,-29.5042 -4.60899,-48.85595 0.0206,-19.16158 1.11004,-30.57121 4.54191,-47.56591 6.20861,-30.7451 17.96795,-55.33383 34.12962,-71.3649 13.78875,-13.67731 28.82056,-18.77664 45.17821,-15.32607 26.03403,5.49176 47.49688,33.61849 58.64669,76.85557 4.96629,19.25846 6.79161,34.78134 6.79161,57.75726 0,29.00765 -3.8485,52.92949 -12.22675,76 -1.69777,4.675 -3.04656,8.89969 -2.99732,9.3882 0.0492,0.4885 -0.31066,1.1635 -0.79978,1.5 -0.48911,0.33649 -2.39173,3.5368 -4.22804,7.1118 -8.63442,16.80986 -21.03633,30.42803 -33.09981,36.34592 -12.00282,5.88815 -21.29073,6.92608 -33.21125,3.71138 z"
     id="path3928" />
  <path
     style="fill:#ffffff;fill-opacity:1;stroke:none;stroke-opacity:1"
     d="m 579.72657,396.55272 c 10.07255,-4.78343 23.41183,-18.03478 30.70389,-30.50149 9.8606,-16.85793 17.44274,-39.77321 21.22491,-64.1474 2.49917,-16.1059 2.48734,-51.97061 -0.0224,-67.90383 -5.95786,-37.82374 -18.7525,-66.59302 -37.41659,-84.13275 -27.75286,-26.08096 -59.35103,-17.40564 -82.58215,22.67304 -9.21298,15.89437 -17.03362,40.76568 -20.18232,64.1841 -2.10178,15.63198 -2.10178,46.91924 0,62.55122 6.92374,51.49519 29.62381,90.34638 58.3458,99.8589 9.14411,3.02846 20.10658,2.08279 29.92887,-2.58179 z"
     id="path3926" />
  <path
     style="fill:#000000;fill-opacity:1;stroke:none;stroke-opacity:1"
     d="m 565.8125,128.31689 c 0.72187,-0.28887 1.58438,-0.25335 1.91667,0.0789 0.33229,0.33229 -0.25834,0.56864 -1.3125,0.52522 -1.16495,-0.048 -1.4019,-0.28494 -0.60417,-0.60416 z"
     id="path3924" />
  <path
     style="fill:#000000;fill-opacity:1;stroke:none;stroke-opacity:1"
     d="m 975.5,719.55261 c -7.36399,-1.88119 -10.14555,-3.16338 -17.56963,-8.0989 C 937.72178,698.01907 920.37079,668.7622 905.54765,623.1271 887.33867,567.06825 878.39711,502.13113 877.29002,417.90905 876.38202,348.83283 880.36188,306.9721 893.11117,251.5 c 6.15073,-26.76176 11.90653,-44.776 20.47392,-64.07822 15.28562,-34.43835 26.10507,-51.4559 39.14698,-61.57295 11.93284,-9.25672 17.89519,-11.71042 30.48278,-12.54466 7.41462,-0.4914 9.79429,-0.23049 15.94974,1.74875 31.60011,10.16079 58.18011,52.63443 74.75011,119.44708 14.4327,58.19512 20.485,112.72594 20.4774,184.5 -0.01,95.33974 -10.2915,162.55368 -34.111,223 -22.9233,58.17183 -52.9891,85.67417 -84.7811,77.55261 z"
     id="path3922" />
  <path
     style="fill:#000000;fill-opacity:1;stroke:none;stroke-opacity:1"
     d="m 1004.6821,713.44434 c 37.5268,-19.0283 70.0313,-95.51993 81.7779,-192.44434 6.4042,-52.84311 7.2131,-127.61508 1.9798,-183 -3.8593,-40.84314 -11.9119,-85.21864 -21.4307,-118.09827 -16.2955,-56.28737 -40.841,-92.69438 -68.75771,-101.98446 -5.2143,-1.73521 -8.13855,-2.07047 -15.10856,-1.73218 -12.48701,0.60606 -21.62189,5.14027 -32.6445,16.20351 -10.304,10.34197 -17.6514,21.46757 -26.91131,40.74973 -12.98887,27.04707 -18.45916,41.55432 -24.08048,63.86167 -14.5926,57.90851 -19.90045,102.6382 -19.87641,167.5 0.0357,96.22802 12.20448,176.88862 35.82724,237.47978 6.62364,16.98931 17.38547,38.30834 22.14478,43.86853 1.86882,2.18329 3.39785,4.38583 3.39785,4.89453 0,1.26556 11.68686,13.27073 16,16.43579 10.90335,8.00108 19.5076,10.89751 31.20164,10.50334 7.85108,-0.26463 9.46199,-0.67884 16.48046,-4.23763 z"
     id="path3920" />
  <path
     style="fill:#000000;fill-opacity:1;stroke:none;stroke-opacity:1"
     d="M 976,706.28663 C 956.34592,699.493 936.21299,671.73923 920.54469,629.84008 908.69326,598.14774 898.45669,546.28725 893.53429,493 890.63992,461.66712 888.90891,404.63377 891,409.5 c 0.82125,1.91114 0.86255,1.91485 0.92971,0.0833 0.13741,-3.74703 1.08759,-0.77543 3.51489,10.99255 3.96824,19.23865 11.31163,43.94242 16.0743,54.07525 0.8146,1.73312 1.4811,3.44562 1.4811,3.80556 0,1.29349 10.83413,22.24469 14.2651,27.58607 4.60357,7.16689 12.90937,17.54804 17.66479,22.07864 3.71223,3.53673 13.21429,10.33104 17.93064,12.82103 3.96622,2.09397 15.86905,5.05757 20.31292,5.05757 5.54573,0 16.21237,-2.6993 21.84125,-5.52714 22.2568,-11.18134 43.7528,-42.43371 56.9054,-82.73278 7.0518,-21.60658 11.4588,-42.1457 15.0712,-70.24008 1.4706,-11.43727 1.849,-12.99321 2.0674,-8.5 l 0.2673,5.5 0.617,-5.5 c 1.3559,-12.08631 2.3376,16.69278 1.7397,51 -1.1691,67.08529 -7.6955,118.00092 -22.2029,173.2164 -11.2078,42.65726 -23.833,69.61979 -41.0905,87.75349 -14.319,15.0459 -28.42605,20.14329 -42.3893,15.31674 z"
     id="path3918" />
  <path
     style="fill:#392f76;fill-opacity:1;stroke:none;stroke-opacity:1"
     d="m 998.5424,702.39374 c 5.7633,-2.67749 17.0852,-12.12089 22.2289,-18.5407 9.2415,-11.53445 16.515,-24.67163 23.5937,-42.61441 7.4522,-18.88949 11.0447,-30.91547 17.248,-57.73863 12.7832,-55.27443 18.1816,-110.33626 17.3533,-177 -0.1445,-11.63066 -0.3637,-11.44721 -2.3901,2 -0.8288,5.5 -2.6603,15.175 -4.0699,21.5 -2.581,11.58073 -11.7654,41.35567 -14.1892,46 -0.7176,1.375 -1.3076,2.87 -1.3109,3.32223 -0.014,1.8614 -11.067,22.80787 -16.4519,31.17777 -10.1676,15.80373 -27.2102,30.69084 -40.1726,35.09168 -13.12228,4.45514 -29.10337,3.22198 -41.13242,-3.17393 C 932.78553,528.34684 909.784,489.92178 896.4447,437.5 l -3.30799,-13 -0.0684,11.78865 c -0.31195,53.79758 11.92953,137.68792 26.44278,181.21135 16.26079,48.76407 38.85091,81.11043 60.71219,86.93265 6.33361,1.68681 11.54883,1.10635 18.31907,-2.03891 z"
     id="path3916" />
  <path
     style="fill:#000000;fill-opacity:1;stroke:none;stroke-opacity:1"
     d="m 892.68311,417.8125 c -0.31922,-0.79773 -0.55618,-0.56078 -0.60416,0.60417 -0.0434,1.05416 0.19293,1.64479 0.52522,1.3125 0.33229,-0.33229 0.36781,-1.1948 0.0789,-1.91667 z"
     id="path3914" />
  <path
     style="fill:#000000;fill-opacity:1;stroke:none;stroke-opacity:1"
     d="m 976.5,402.59475 c -7.70766,-1.90403 -13.47211,-4.82245 -20.01374,-10.13255 -3.29244,-2.67259 -6.4413,-5.33243 -6.99745,-5.91073 -19.34979,-20.12044 -32.43364,-53.77243 -36.53547,-93.97017 -1.69892,-16.64923 -0.73179,-48.54497 1.94303,-64.0813 11.01454,-63.97649 43.7149,-102.6811 80.42693,-95.19445 32.2564,6.57803 56.4945,46.11525 64.7953,105.69445 1.9973,14.33549 1.4798,48.21781 -0.9861,64.5567 -4.2164,27.93907 -13.147,52.86093 -25.339,70.71148 -2.341,3.4275 -4.1147,6.68182 -3.9416,7.23182 0.1731,0.55 0.071,0.75666 -0.226,0.45924 -0.2974,-0.29741 -3.7701,2.52023 -7.717,6.26144 -13.7981,13.07891 -29.95205,18.1924 -45.4089,14.37407 z"
     id="path3912" />
  <path
     style="fill:#f5f5f5;fill-opacity:1;stroke:none;stroke-opacity:1"
     d="m 1004.6644,396.58226 c 6.06,-2.8779 9.4766,-5.463 16.3364,-12.36061 17.9235,-18.02239 29.9232,-45.80786 35.7248,-82.72165 2.4474,-15.57252 2.3956,-51.63677 -0.097,-67.5 -5.7641,-36.68232 -17.5884,-63.99001 -35.5523,-82.10627 -18.8917,-19.05184 -38.4447,-22.00998 -58.61592,-8.86792 -24.16942,15.747 -41.36477,52.87573 -46.99554,101.47419 -1.20141,10.36927 -0.60353,42.41209 1.02205,54.77561 2.67174,20.32011 9.45362,43.68164 17.13759,59.0338 7.89948,15.78273 21.1919,31.00719 32.39686,37.10569 7.96809,4.33678 13.43679,5.58078 22.72954,5.17044 6.97832,-0.30814 9.43272,-0.92558 15.91352,-4.00328 z"
     id="path3910" />
  <path
     style="fill:#000000;fill-opacity:1;stroke:none;stroke-opacity:1"
     d="m 989.8125,128.31689 c 0.72187,-0.28887 1.58438,-0.25335 1.91667,0.0789 0.33229,0.33229 -0.25834,0.56864 -1.3125,0.52522 -1.16495,-0.048 -1.4019,-0.28494 -0.60417,-0.60416 z"
     id="path3908" />
  <path
     style="fill:#000000;fill-opacity:1;stroke:none;stroke-opacity:1"
     d="m 989.26903,126.30701 c 0.97297,-0.25354 2.32297,-0.23687 3,0.037 0.67703,0.27393 -0.11903,0.48137 -1.76903,0.46099 -1.65,-0.0204 -2.20394,-0.2445 -1.23097,-0.49804 z"
     id="path3906" />
  <path
     sodipodi:type="arc"
     style="fill:#cf4873;fill-opacity:1;stroke:none"
     id="path4032"
     sodipodi:cx="259.31918"
     sodipodi:cy="664.56396"
     sodipodi:rx="130.23587"
     sodipodi:ry="73.761902"
     d="m 389.55505,664.56396 a 130.23587,73.761902 0 1 1 -260.47174,0 130.23587,73.761902 0 1 1 260.47174,0 z"
     transform="matrix(1.1474911,0,0,1.1484375,-40.936718,-96.917113)" />
  <path
     sodipodi:type="arc"
     style="fill:#cf4873;fill-opacity:1;stroke:none"
     id="path4032-9"
     sodipodi:cx="259.31918"
     sodipodi:cy="664.56396"
     sodipodi:rx="130.23587"
     sodipodi:ry="73.761902"
     d="m 389.55505,664.56396 a 130.23587,73.761902 0 1 1 -260.47174,0 130.23587,73.761902 0 1 1 260.47174,0 z"
     transform="matrix(1.1474925,0,0,1.1484375,985.81087,-95.039113)" />
</svg>
